<?xml version="1.0" encoding="utf-8" standalone="no"?>
<!DOCTYPE svg PUBLIC "-//W3C//DTD SVG 1.1//EN"
  "http://www.w3.org/Graphics/SVG/1.1/DTD/svg11.dtd">
<!-- Created with matplotlib (http://matplotlib.org/) -->
<svg height="576pt" version="1.1" viewBox="0 0 720 576" width="720pt" xmlns="http://www.w3.org/2000/svg" xmlns:xlink="http://www.w3.org/1999/xlink">
 <defs>
  <style type="text/css">
*{stroke-linecap:butt;stroke-linejoin:round;}
  </style>
 </defs>
 <g id="figure_1">
  <g id="patch_1">
   <path d="M 0 576 
L 720 576 
L 720 0 
L 0 0 
z
" style="fill:#ffffff;"/>
  </g>
  <g id="axes_1">
   <g id="patch_2">
    <path d="M 90 512.64 
L 648 512.64 
L 648 69.12 
L 90 69.12 
z
" style="fill:#ffffff;"/>
   </g>
   <g id="PathCollection_1">
    <defs>
     <path d="M 0 -5 
L -5 5 
L 5 5 
z
" id="mdc541e3f50" style="stroke:#000000;stroke-opacity:0.9;"/>
    </defs>
    <g clip-path="url(#pe32909ea3b)">
     <use style="fill:#88c999;fill-opacity:0.9;stroke:#000000;stroke-opacity:0.9;" x="87.26022" xlink:href="#mdc541e3f50" y="253.92"/>
     <use style="fill:#88c999;fill-opacity:0.9;stroke:#000000;stroke-opacity:0.9;" x="87.25464" xlink:href="#mdc541e3f50" y="253.92"/>
     <use style="fill:#88c999;fill-opacity:0.9;stroke:#000000;stroke-opacity:0.9;" x="87.2658" xlink:href="#mdc541e3f50" y="255.493424"/>
     <use style="fill:#88c999;fill-opacity:0.9;stroke:#000000;stroke-opacity:0.9;" x="87.25464" xlink:href="#mdc541e3f50" y="253.92"/>
     <use style="fill:#88c999;fill-opacity:0.9;stroke:#000000;stroke-opacity:0.9;" x="87.26022" xlink:href="#mdc541e3f50" y="253.92"/>
     <use style="fill:#88c999;fill-opacity:0.9;stroke:#000000;stroke-opacity:0.9;" x="87.25464" xlink:href="#mdc541e3f50" y="255.493424"/>
     <use style="fill:#88c999;fill-opacity:0.9;stroke:#000000;stroke-opacity:0.9;" x="87.27138" xlink:href="#mdc541e3f50" y="253.92"/>
     <use style="fill:#88c999;fill-opacity:0.9;stroke:#000000;stroke-opacity:0.9;" x="87.2658" xlink:href="#mdc541e3f50" y="253.92"/>
     <use style="fill:#88c999;fill-opacity:0.9;stroke:#000000;stroke-opacity:0.9;" x="87.2658" xlink:href="#mdc541e3f50" y="255.493424"/>
     <use style="fill:#88c999;fill-opacity:0.9;stroke:#000000;stroke-opacity:0.9;" x="87.2658" xlink:href="#mdc541e3f50" y="253.92"/>
     <use style="fill:#88c999;fill-opacity:0.9;stroke:#000000;stroke-opacity:0.9;" x="87.25464" xlink:href="#mdc541e3f50" y="253.92"/>
     <use style="fill:#88c999;fill-opacity:0.9;stroke:#000000;stroke-opacity:0.9;" x="87.27138" xlink:href="#mdc541e3f50" y="255.15184"/>
     <use style="fill:#88c999;fill-opacity:0.9;stroke:#000000;stroke-opacity:0.9;" x="87.8238" xlink:href="#mdc541e3f50" y="278.599486"/>
     <use style="fill:#88c999;fill-opacity:0.9;stroke:#000000;stroke-opacity:0.9;" x="87.768" xlink:href="#mdc541e3f50" y="284.234962"/>
     <use style="fill:#88c999;fill-opacity:0.9;stroke:#000000;stroke-opacity:0.9;" x="87.768" xlink:href="#mdc541e3f50" y="279.094971"/>
     <use style="fill:#88c999;fill-opacity:0.9;stroke:#000000;stroke-opacity:0.9;" x="87.7122" xlink:href="#mdc541e3f50" y="263.791794"/>
     <use style="fill:#88c999;fill-opacity:0.9;stroke:#000000;stroke-opacity:0.9;" x="87.7122" xlink:href="#mdc541e3f50" y="278.171969"/>
     <use style="fill:#88c999;fill-opacity:0.9;stroke:#000000;stroke-opacity:0.9;" x="87.8238" xlink:href="#mdc541e3f50" y="279.094971"/>
     <use style="fill:#88c999;fill-opacity:0.9;stroke:#000000;stroke-opacity:0.9;" x="87.8238" xlink:href="#mdc541e3f50" y="268.727691"/>
     <use style="fill:#88c999;fill-opacity:0.9;stroke:#000000;stroke-opacity:0.9;" x="87.6564" xlink:href="#mdc541e3f50" y="272.108977"/>
     <use style="fill:#88c999;fill-opacity:0.9;stroke:#000000;stroke-opacity:0.9;" x="87.8238" xlink:href="#mdc541e3f50" y="275.948086"/>
     <use style="fill:#88c999;fill-opacity:0.9;stroke:#000000;stroke-opacity:0.9;" x="87.768" xlink:href="#mdc541e3f50" y="258.847359"/>
     <use style="fill:#88c999;fill-opacity:0.9;stroke:#000000;stroke-opacity:0.9;" x="87.8238" xlink:href="#mdc541e3f50" y="253.92"/>
     <use style="fill:#88c999;fill-opacity:0.9;stroke:#000000;stroke-opacity:0.9;" x="87.7122" xlink:href="#mdc541e3f50" y="256.38368"/>
     <use style="fill:#88c999;fill-opacity:0.9;stroke:#000000;stroke-opacity:0.9;" x="89.9442" xlink:href="#mdc541e3f50" y="318.086663"/>
     <use style="fill:#88c999;fill-opacity:0.9;stroke:#000000;stroke-opacity:0.9;" x="88.4934" xlink:href="#mdc541e3f50" y="332.7389"/>
     <use style="fill:#88c999;fill-opacity:0.9;stroke:#000000;stroke-opacity:0.9;" x="89.5536" xlink:href="#mdc541e3f50" y="318.430871"/>
     <use style="fill:#88c999;fill-opacity:0.9;stroke:#000000;stroke-opacity:0.9;" x="89.442" xlink:href="#mdc541e3f50" y="318.086663"/>
     <use style="fill:#88c999;fill-opacity:0.9;stroke:#000000;stroke-opacity:0.9;" x="90.279" xlink:href="#mdc541e3f50" y="344.864885"/>
     <use style="fill:#88c999;fill-opacity:0.9;stroke:#000000;stroke-opacity:0.9;" x="89.6652" xlink:href="#mdc541e3f50" y="321.577719"/>
     <use style="fill:#88c999;fill-opacity:0.9;stroke:#000000;stroke-opacity:0.9;" x="89.6094" xlink:href="#mdc541e3f50" y="303.278971"/>
     <use style="fill:#88c999;fill-opacity:0.9;stroke:#000000;stroke-opacity:0.9;" x="90.1674" xlink:href="#mdc541e3f50" y="326.675908"/>
     <use style="fill:#88c999;fill-opacity:0.9;stroke:#000000;stroke-opacity:0.9;" x="89.3304" xlink:href="#mdc541e3f50" y="318.430871"/>
     <use style="fill:#88c999;fill-opacity:0.9;stroke:#000000;stroke-opacity:0.9;" x="88.5492" xlink:href="#mdc541e3f50" y="263.774682"/>
     <use style="fill:#88c999;fill-opacity:0.9;stroke:#000000;stroke-opacity:0.9;" x="90.3348" xlink:href="#mdc541e3f50" y="265.006522"/>
     <use style="fill:#88c999;fill-opacity:0.9;stroke:#000000;stroke-opacity:0.9;" x="89.163" xlink:href="#mdc541e3f50" y="272.397524"/>
     <use style="fill:#88c999;fill-opacity:0.9;stroke:#000000;stroke-opacity:0.9;" x="89.7768" xlink:href="#mdc541e3f50" y="357.57384"/>
     <use style="fill:#88c999;fill-opacity:0.9;stroke:#000000;stroke-opacity:0.9;" x="90.2232" xlink:href="#mdc541e3f50" y="344.864885"/>
     <use style="fill:#88c999;fill-opacity:0.9;stroke:#000000;stroke-opacity:0.9;" x="90.1116" xlink:href="#mdc541e3f50" y="373.501086"/>
     <use style="fill:#88c999;fill-opacity:0.9;stroke:#000000;stroke-opacity:0.9;" x="89.7768" xlink:href="#mdc541e3f50" y="347.702045"/>
     <use style="fill:#88c999;fill-opacity:0.9;stroke:#000000;stroke-opacity:0.9;" x="89.8884" xlink:href="#mdc541e3f50" y="399.431816"/>
     <use style="fill:#88c999;fill-opacity:0.9;stroke:#000000;stroke-opacity:0.9;" x="89.8884" xlink:href="#mdc541e3f50" y="368.780777"/>
     <use style="fill:#88c999;fill-opacity:0.9;stroke:#000000;stroke-opacity:0.9;" x="90.1116" xlink:href="#mdc541e3f50" y="352.637942"/>
     <use style="fill:#88c999;fill-opacity:0.9;stroke:#000000;stroke-opacity:0.9;" x="90.0558" xlink:href="#mdc541e3f50" y="369.116854"/>
     <use style="fill:#88c999;fill-opacity:0.9;stroke:#000000;stroke-opacity:0.9;" x="89.9442" xlink:href="#mdc541e3f50" y="370.354238"/>
     <use style="fill:#88c999;fill-opacity:0.9;stroke:#000000;stroke-opacity:0.9;" x="89.721" xlink:href="#mdc541e3f50" y="277.324883"/>
     <use style="fill:#88c999;fill-opacity:0.9;stroke:#000000;stroke-opacity:0.9;" x="89.8326" xlink:href="#mdc541e3f50" y="273.629364"/>
     <use style="fill:#88c999;fill-opacity:0.9;stroke:#000000;stroke-opacity:0.9;" x="90.1116" xlink:href="#mdc541e3f50" y="276.093043"/>
     <use style="fill:#88c999;fill-opacity:0.9;stroke:#000000;stroke-opacity:0.9;" x="91.8414" xlink:href="#mdc541e3f50" y="421.740502"/>
     <use style="fill:#88c999;fill-opacity:0.9;stroke:#000000;stroke-opacity:0.9;" x="91.8414" xlink:href="#mdc541e3f50" y="417.620793"/>
     <use style="fill:#88c999;fill-opacity:0.9;stroke:#000000;stroke-opacity:0.9;" x="91.7856" xlink:href="#mdc541e3f50" y="445.879115"/>
     <use style="fill:#88c999;fill-opacity:0.9;stroke:#000000;stroke-opacity:0.9;" x="91.8972" xlink:href="#mdc541e3f50" y="287.179565"/>
     <use style="fill:#88c999;fill-opacity:0.9;stroke:#000000;stroke-opacity:0.9;" x="91.7856" xlink:href="#mdc541e3f50" y="392.125119"/>
     <use style="fill:#88c999;fill-opacity:0.9;stroke:#000000;stroke-opacity:0.9;" x="91.395" xlink:href="#mdc541e3f50" y="417.620793"/>
     <use style="fill:#88c999;fill-opacity:0.9;stroke:#000000;stroke-opacity:0.9;" x="91.8414" xlink:href="#mdc541e3f50" y="450.599424"/>
     <use style="fill:#88c999;fill-opacity:0.9;stroke:#000000;stroke-opacity:0.9;" x="91.395" xlink:href="#mdc541e3f50" y="287.179565"/>
     <use style="fill:#88c999;fill-opacity:0.9;stroke:#000000;stroke-opacity:0.9;" x="91.8972" xlink:href="#mdc541e3f50" y="441.484091"/>
     <use style="fill:#88c999;fill-opacity:0.9;stroke:#000000;stroke-opacity:0.9;" x="91.8414" xlink:href="#mdc541e3f50" y="466.124731"/>
     <use style="fill:#88c999;fill-opacity:0.9;stroke:#000000;stroke-opacity:0.9;" x="91.8972" xlink:href="#mdc541e3f50" y="436.438533"/>
     <use style="fill:#88c999;fill-opacity:0.9;stroke:#000000;stroke-opacity:0.9;" x="91.8414" xlink:href="#mdc541e3f50" y="281.020403"/>
     <use style="fill:#88c999;fill-opacity:0.9;stroke:#000000;stroke-opacity:0.9;" x="92.9574" xlink:href="#mdc541e3f50" y="436.548193"/>
     <use style="fill:#88c999;fill-opacity:0.9;stroke:#000000;stroke-opacity:0.9;" x="92.8458" xlink:href="#mdc541e3f50" y="508.565677"/>
     <use style="fill:#88c999;fill-opacity:0.9;stroke:#000000;stroke-opacity:0.9;" x="92.6784" xlink:href="#mdc541e3f50" y="472.627548"/>
     <use style="fill:#88c999;fill-opacity:0.9;stroke:#000000;stroke-opacity:0.9;" x="92.511" xlink:href="#mdc541e3f50" y="480.971268"/>
     <use style="fill:#88c999;fill-opacity:0.9;stroke:#000000;stroke-opacity:0.9;" x="92.511" xlink:href="#mdc541e3f50" y="484.313708"/>
     <use style="fill:#88c999;fill-opacity:0.9;stroke:#000000;stroke-opacity:0.9;" x="92.8458" xlink:href="#mdc541e3f50" y="469.480662"/>
     <use style="fill:#88c999;fill-opacity:0.9;stroke:#000000;stroke-opacity:0.9;" x="92.9016" xlink:href="#mdc541e3f50" y="471.099473"/>
     <use style="fill:#88c999;fill-opacity:0.9;stroke:#000000;stroke-opacity:0.9;" x="92.6784" xlink:href="#mdc541e3f50" y="466.124731"/>
     <use style="fill:#88c999;fill-opacity:0.9;stroke:#000000;stroke-opacity:0.9;" x="92.9574" xlink:href="#mdc541e3f50" y="472.627548"/>
     <use style="fill:#88c999;fill-opacity:0.9;stroke:#000000;stroke-opacity:0.9;" x="92.8458" xlink:href="#mdc541e3f50" y="297.034247"/>
     <use style="fill:#88c999;fill-opacity:0.9;stroke:#000000;stroke-opacity:0.9;" x="92.9574" xlink:href="#mdc541e3f50" y="292.106924"/>
     <use style="fill:#88c999;fill-opacity:0.9;stroke:#000000;stroke-opacity:0.9;" x="92.79" xlink:href="#mdc541e3f50" y="303.193446"/>
    </g>
   </g>
   <g id="PathCollection_2">
    <defs>
     <path d="M 0 -5 
L -1.12257 -1.545085 
L -4.755283 -1.545085 
L -1.816356 0.59017 
L -2.938926 4.045085 
L -0 1.90983 
L 2.938926 4.045085 
L 1.816356 0.59017 
L 4.755283 -1.545085 
L 1.12257 -1.545085 
z
" id="mff928c9f6f" style="stroke:#000000;stroke-opacity:0.5;"/>
    </defs>
    <g clip-path="url(#pe32909ea3b)">
     <use style="fill:#fc011a;fill-opacity:0.5;stroke:#000000;stroke-opacity:0.5;" x="87.26022" xlink:href="#mff928c9f6f" y="257.815067"/>
     <use style="fill:#fc011a;fill-opacity:0.5;stroke:#000000;stroke-opacity:0.5;" x="87.25464" xlink:href="#mff928c9f6f" y="257.468825"/>
     <use style="fill:#fc011a;fill-opacity:0.5;stroke:#000000;stroke-opacity:0.5;" x="87.2658" xlink:href="#mff928c9f6f" y="256.86294"/>
     <use style="fill:#fc011a;fill-opacity:0.5;stroke:#000000;stroke-opacity:0.5;" x="87.25464" xlink:href="#mff928c9f6f" y="257.815067"/>
     <use style="fill:#fc011a;fill-opacity:0.5;stroke:#000000;stroke-opacity:0.5;" x="87.26022" xlink:href="#mff928c9f6f" y="257.728506"/>
     <use style="fill:#fc011a;fill-opacity:0.5;stroke:#000000;stroke-opacity:0.5;" x="87.25464" xlink:href="#mff928c9f6f" y="256.86294"/>
     <use style="fill:#fc011a;fill-opacity:0.5;stroke:#000000;stroke-opacity:0.5;" x="87.27138" xlink:href="#mff928c9f6f" y="257.728506"/>
     <use style="fill:#fc011a;fill-opacity:0.5;stroke:#000000;stroke-opacity:0.5;" x="87.2658" xlink:href="#mff928c9f6f" y="257.468825"/>
     <use style="fill:#fc011a;fill-opacity:0.5;stroke:#000000;stroke-opacity:0.5;" x="87.2658" xlink:href="#mff928c9f6f" y="257.901627"/>
     <use style="fill:#fc011a;fill-opacity:0.5;stroke:#000000;stroke-opacity:0.5;" x="87.2658" xlink:href="#mff928c9f6f" y="257.295705"/>
     <use style="fill:#fc011a;fill-opacity:0.5;stroke:#000000;stroke-opacity:0.5;" x="87.25464" xlink:href="#mff928c9f6f" y="257.901627"/>
     <use style="fill:#fc011a;fill-opacity:0.5;stroke:#000000;stroke-opacity:0.5;" x="87.27138" xlink:href="#mff928c9f6f" y="257.815067"/>
     <use style="fill:#fc011a;fill-opacity:0.5;stroke:#000000;stroke-opacity:0.5;" x="87.8238" xlink:href="#mff928c9f6f" y="279.108018"/>
     <use style="fill:#fc011a;fill-opacity:0.5;stroke:#000000;stroke-opacity:0.5;" x="87.768" xlink:href="#mff928c9f6f" y="278.934898"/>
     <use style="fill:#fc011a;fill-opacity:0.5;stroke:#000000;stroke-opacity:0.5;" x="87.768" xlink:href="#mff928c9f6f" y="276.165115"/>
     <use style="fill:#fc011a;fill-opacity:0.5;stroke:#000000;stroke-opacity:0.5;" x="87.7122" xlink:href="#mff928c9f6f" y="277.809687"/>
     <use style="fill:#fc011a;fill-opacity:0.5;stroke:#000000;stroke-opacity:0.5;" x="87.7122" xlink:href="#mff928c9f6f" y="276.51132"/>
     <use style="fill:#fc011a;fill-opacity:0.5;stroke:#000000;stroke-opacity:0.5;" x="87.8238" xlink:href="#mff928c9f6f" y="276.424759"/>
     <use style="fill:#fc011a;fill-opacity:0.5;stroke:#000000;stroke-opacity:0.5;" x="87.8238" xlink:href="#mff928c9f6f" y="277.290325"/>
     <use style="fill:#fc011a;fill-opacity:0.5;stroke:#000000;stroke-opacity:0.5;" x="87.6564" xlink:href="#mff928c9f6f" y="279.45426"/>
     <use style="fill:#fc011a;fill-opacity:0.5;stroke:#000000;stroke-opacity:0.5;" x="87.8238" xlink:href="#mff928c9f6f" y="276.944121"/>
     <use style="fill:#fc011a;fill-opacity:0.5;stroke:#000000;stroke-opacity:0.5;" x="87.768" xlink:href="#mff928c9f6f" y="277.809687"/>
     <use style="fill:#fc011a;fill-opacity:0.5;stroke:#000000;stroke-opacity:0.5;" x="87.8238" xlink:href="#mff928c9f6f" y="275.732314"/>
     <use style="fill:#fc011a;fill-opacity:0.5;stroke:#000000;stroke-opacity:0.5;" x="87.7122" xlink:href="#mff928c9f6f" y="277.117205"/>
     <use style="fill:#fc011a;fill-opacity:0.5;stroke:#000000;stroke-opacity:0.5;" x="89.9442" xlink:href="#mff928c9f6f" y="316.15432"/>
     <use style="fill:#fc011a;fill-opacity:0.5;stroke:#000000;stroke-opacity:0.5;" x="88.4934" xlink:href="#mff928c9f6f" y="317.712369"/>
     <use style="fill:#fc011a;fill-opacity:0.5;stroke:#000000;stroke-opacity:0.5;" x="89.5536" xlink:href="#mff928c9f6f" y="321.174634"/>
     <use style="fill:#fc011a;fill-opacity:0.5;stroke:#000000;stroke-opacity:0.5;" x="89.442" xlink:href="#mff928c9f6f" y="318.231694"/>
     <use style="fill:#fc011a;fill-opacity:0.5;stroke:#000000;stroke-opacity:0.5;" x="90.279" xlink:href="#mff928c9f6f" y="313.990423"/>
     <use style="fill:#fc011a;fill-opacity:0.5;stroke:#000000;stroke-opacity:0.5;" x="89.6652" xlink:href="#mff928c9f6f" y="316.500561"/>
     <use style="fill:#fc011a;fill-opacity:0.5;stroke:#000000;stroke-opacity:0.5;" x="89.6094" xlink:href="#mff928c9f6f" y="317.885489"/>
     <use style="fill:#fc011a;fill-opacity:0.5;stroke:#000000;stroke-opacity:0.5;" x="90.1674" xlink:href="#mff928c9f6f" y="315.548435"/>
     <use style="fill:#fc011a;fill-opacity:0.5;stroke:#000000;stroke-opacity:0.5;" x="89.3304" xlink:href="#mff928c9f6f" y="314.336627"/>
     <use style="fill:#fc011a;fill-opacity:0.5;stroke:#000000;stroke-opacity:0.5;" x="88.5492" xlink:href="#mff928c9f6f" y="322.992326"/>
     <use style="fill:#fc011a;fill-opacity:0.5;stroke:#000000;stroke-opacity:0.5;" x="90.3348" xlink:href="#mff928c9f6f" y="319.356941"/>
     <use style="fill:#fc011a;fill-opacity:0.5;stroke:#000000;stroke-opacity:0.5;" x="89.163" xlink:href="#mff928c9f6f" y="314.682868"/>
     <use style="fill:#fc011a;fill-opacity:0.5;stroke:#000000;stroke-opacity:0.5;" x="89.7768" xlink:href="#mff928c9f6f" y="316.15432"/>
     <use style="fill:#fc011a;fill-opacity:0.5;stroke:#000000;stroke-opacity:0.5;" x="90.2232" xlink:href="#mff928c9f6f" y="317.712369"/>
     <use style="fill:#fc011a;fill-opacity:0.5;stroke:#000000;stroke-opacity:0.5;" x="90.1116" xlink:href="#mff928c9f6f" y="321.174634"/>
     <use style="fill:#fc011a;fill-opacity:0.5;stroke:#000000;stroke-opacity:0.5;" x="89.7768" xlink:href="#mff928c9f6f" y="318.231694"/>
     <use style="fill:#fc011a;fill-opacity:0.5;stroke:#000000;stroke-opacity:0.5;" x="89.8884" xlink:href="#mff928c9f6f" y="313.990423"/>
     <use style="fill:#fc011a;fill-opacity:0.5;stroke:#000000;stroke-opacity:0.5;" x="89.8884" xlink:href="#mff928c9f6f" y="316.500561"/>
     <use style="fill:#fc011a;fill-opacity:0.5;stroke:#000000;stroke-opacity:0.5;" x="90.1116" xlink:href="#mff928c9f6f" y="317.885489"/>
     <use style="fill:#fc011a;fill-opacity:0.5;stroke:#000000;stroke-opacity:0.5;" x="90.0558" xlink:href="#mff928c9f6f" y="315.548435"/>
     <use style="fill:#fc011a;fill-opacity:0.5;stroke:#000000;stroke-opacity:0.5;" x="89.9442" xlink:href="#mff928c9f6f" y="314.336627"/>
     <use style="fill:#fc011a;fill-opacity:0.5;stroke:#000000;stroke-opacity:0.5;" x="89.721" xlink:href="#mff928c9f6f" y="322.992326"/>
     <use style="fill:#fc011a;fill-opacity:0.5;stroke:#000000;stroke-opacity:0.5;" x="89.8326" xlink:href="#mff928c9f6f" y="319.356941"/>
     <use style="fill:#fc011a;fill-opacity:0.5;stroke:#000000;stroke-opacity:0.5;" x="90.1116" xlink:href="#mff928c9f6f" y="314.682868"/>
     <use style="fill:#fc011a;fill-opacity:0.5;stroke:#000000;stroke-opacity:0.5;" x="91.8414" xlink:href="#mff928c9f6f" y="422.186424"/>
     <use style="fill:#fc011a;fill-opacity:0.5;stroke:#000000;stroke-opacity:0.5;" x="91.8414" xlink:href="#mff928c9f6f" y="415.175297"/>
     <use style="fill:#fc011a;fill-opacity:0.5;stroke:#000000;stroke-opacity:0.5;" x="91.7856" xlink:href="#mff928c9f6f" y="417.598912"/>
     <use style="fill:#fc011a;fill-opacity:0.5;stroke:#000000;stroke-opacity:0.5;" x="91.8972" xlink:href="#mff928c9f6f" y="419.84937"/>
     <use style="fill:#fc011a;fill-opacity:0.5;stroke:#000000;stroke-opacity:0.5;" x="91.7856" xlink:href="#mff928c9f6f" y="421.753623"/>
     <use style="fill:#fc011a;fill-opacity:0.5;stroke:#000000;stroke-opacity:0.5;" x="91.395" xlink:href="#mff928c9f6f" y="422.619189"/>
     <use style="fill:#fc011a;fill-opacity:0.5;stroke:#000000;stroke-opacity:0.5;" x="91.8414" xlink:href="#mff928c9f6f" y="423.225111"/>
     <use style="fill:#fc011a;fill-opacity:0.5;stroke:#000000;stroke-opacity:0.5;" x="91.395" xlink:href="#mff928c9f6f" y="419.156924"/>
     <use style="fill:#fc011a;fill-opacity:0.5;stroke:#000000;stroke-opacity:0.5;" x="91.8972" xlink:href="#mff928c9f6f" y="415.088774"/>
     <use style="fill:#fc011a;fill-opacity:0.5;stroke:#000000;stroke-opacity:0.5;" x="91.8414" xlink:href="#mff928c9f6f" y="418.983804"/>
     <use style="fill:#fc011a;fill-opacity:0.5;stroke:#000000;stroke-opacity:0.5;" x="91.8972" xlink:href="#mff928c9f6f" y="424.523442"/>
     <use style="fill:#fc011a;fill-opacity:0.5;stroke:#000000;stroke-opacity:0.5;" x="91.8414" xlink:href="#mff928c9f6f" y="418.291358"/>
     <use style="fill:#fc011a;fill-opacity:0.5;stroke:#000000;stroke-opacity:0.5;" x="92.9574" xlink:href="#mff928c9f6f" y="457.328473"/>
     <use style="fill:#fc011a;fill-opacity:0.5;stroke:#000000;stroke-opacity:0.5;" x="92.8458" xlink:href="#mff928c9f6f" y="458.713401"/>
     <use style="fill:#fc011a;fill-opacity:0.5;stroke:#000000;stroke-opacity:0.5;" x="92.6784" xlink:href="#mff928c9f6f" y="460.617617"/>
     <use style="fill:#fc011a;fill-opacity:0.5;stroke:#000000;stroke-opacity:0.5;" x="92.511" xlink:href="#mff928c9f6f" y="461.22354"/>
     <use style="fill:#fc011a;fill-opacity:0.5;stroke:#000000;stroke-opacity:0.5;" x="92.511" xlink:href="#mff928c9f6f" y="455.078016"/>
     <use style="fill:#fc011a;fill-opacity:0.5;stroke:#000000;stroke-opacity:0.5;" x="92.8458" xlink:href="#mff928c9f6f" y="459.492407"/>
     <use style="fill:#fc011a;fill-opacity:0.5;stroke:#000000;stroke-opacity:0.5;" x="92.9016" xlink:href="#mff928c9f6f" y="456.809148"/>
     <use style="fill:#fc011a;fill-opacity:0.5;stroke:#000000;stroke-opacity:0.5;" x="92.6784" xlink:href="#mff928c9f6f" y="459.232726"/>
     <use style="fill:#fc011a;fill-opacity:0.5;stroke:#000000;stroke-opacity:0.5;" x="92.9574" xlink:href="#mff928c9f6f" y="460.271413"/>
     <use style="fill:#fc011a;fill-opacity:0.5;stroke:#000000;stroke-opacity:0.5;" x="92.8458" xlink:href="#mff928c9f6f" y="460.184853"/>
     <use style="fill:#fc011a;fill-opacity:0.5;stroke:#000000;stroke-opacity:0.5;" x="92.9574" xlink:href="#mff928c9f6f" y="455.943582"/>
     <use style="fill:#fc011a;fill-opacity:0.5;stroke:#000000;stroke-opacity:0.5;" x="92.79" xlink:href="#mff928c9f6f" y="457.847798"/>
    </g>
   </g>
   <g id="matplotlib.axis_1">
    <g id="xtick_1">
     <g id="line2d_1">
      <defs>
       <path d="M 0 0 
L 0 3.5 
" id="m41a5c8cfb1" style="stroke:#000000;stroke-width:0.8;"/>
      </defs>
      <g>
       <use style="stroke:#000000;stroke-width:0.8;" x="90" xlink:href="#m41a5c8cfb1" y="512.64"/>
      </g>
     </g>
     <g id="text_1">
      <!-- 0.5% -->
      <defs>
       <path d="M 31.78125 66.40625 
Q 24.171875 66.40625 20.328125 58.90625 
Q 16.5 51.421875 16.5 36.375 
Q 16.5 21.390625 20.328125 13.890625 
Q 24.171875 6.390625 31.78125 6.390625 
Q 39.453125 6.390625 43.28125 13.890625 
Q 47.125 21.390625 47.125 36.375 
Q 47.125 51.421875 43.28125 58.90625 
Q 39.453125 66.40625 31.78125 66.40625 
z
M 31.78125 74.21875 
Q 44.046875 74.21875 50.515625 64.515625 
Q 56.984375 54.828125 56.984375 36.375 
Q 56.984375 17.96875 50.515625 8.265625 
Q 44.046875 -1.421875 31.78125 -1.421875 
Q 19.53125 -1.421875 13.0625 8.265625 
Q 6.59375 17.96875 6.59375 36.375 
Q 6.59375 54.828125 13.0625 64.515625 
Q 19.53125 74.21875 31.78125 74.21875 
z
" id="DejaVuSans-30"/>
       <path d="M 10.6875 12.40625 
L 21 12.40625 
L 21 0 
L 10.6875 0 
z
" id="DejaVuSans-2e"/>
       <path d="M 10.796875 72.90625 
L 49.515625 72.90625 
L 49.515625 64.59375 
L 19.828125 64.59375 
L 19.828125 46.734375 
Q 21.96875 47.46875 24.109375 47.828125 
Q 26.265625 48.1875 28.421875 48.1875 
Q 40.625 48.1875 47.75 41.5 
Q 54.890625 34.8125 54.890625 23.390625 
Q 54.890625 11.625 47.5625 5.09375 
Q 40.234375 -1.421875 26.90625 -1.421875 
Q 22.3125 -1.421875 17.546875 -0.640625 
Q 12.796875 0.140625 7.71875 1.703125 
L 7.71875 11.625 
Q 12.109375 9.234375 16.796875 8.0625 
Q 21.484375 6.890625 26.703125 6.890625 
Q 35.15625 6.890625 40.078125 11.328125 
Q 45.015625 15.765625 45.015625 23.390625 
Q 45.015625 31 40.078125 35.4375 
Q 35.15625 39.890625 26.703125 39.890625 
Q 22.75 39.890625 18.8125 39.015625 
Q 14.890625 38.140625 10.796875 36.28125 
z
" id="DejaVuSans-35"/>
       <path d="M 72.703125 32.078125 
Q 68.453125 32.078125 66.03125 28.46875 
Q 63.625 24.859375 63.625 18.40625 
Q 63.625 12.0625 66.03125 8.421875 
Q 68.453125 4.78125 72.703125 4.78125 
Q 76.859375 4.78125 79.265625 8.421875 
Q 81.6875 12.0625 81.6875 18.40625 
Q 81.6875 24.8125 79.265625 28.4375 
Q 76.859375 32.078125 72.703125 32.078125 
z
M 72.703125 38.28125 
Q 80.421875 38.28125 84.953125 32.90625 
Q 89.5 27.546875 89.5 18.40625 
Q 89.5 9.28125 84.9375 3.921875 
Q 80.375 -1.421875 72.703125 -1.421875 
Q 64.890625 -1.421875 60.34375 3.921875 
Q 55.8125 9.28125 55.8125 18.40625 
Q 55.8125 27.59375 60.375 32.9375 
Q 64.9375 38.28125 72.703125 38.28125 
z
M 22.3125 68.015625 
Q 18.109375 68.015625 15.6875 64.375 
Q 13.28125 60.75 13.28125 54.390625 
Q 13.28125 47.953125 15.671875 44.328125 
Q 18.0625 40.71875 22.3125 40.71875 
Q 26.5625 40.71875 28.96875 44.328125 
Q 31.390625 47.953125 31.390625 54.390625 
Q 31.390625 60.6875 28.953125 64.34375 
Q 26.515625 68.015625 22.3125 68.015625 
z
M 66.40625 74.21875 
L 74.21875 74.21875 
L 28.609375 -1.421875 
L 20.796875 -1.421875 
z
M 22.3125 74.21875 
Q 30.03125 74.21875 34.609375 68.875 
Q 39.203125 63.53125 39.203125 54.390625 
Q 39.203125 45.171875 34.640625 39.84375 
Q 30.078125 34.515625 22.3125 34.515625 
Q 14.546875 34.515625 10.03125 39.859375 
Q 5.515625 45.21875 5.515625 54.390625 
Q 5.515625 63.484375 10.046875 68.84375 
Q 14.59375 74.21875 22.3125 74.21875 
z
" id="DejaVuSans-25"/>
      </defs>
      <g transform="translate(70.946484 531.037656)scale(0.15 -0.15)">
       <use xlink:href="#DejaVuSans-30"/>
       <use x="63.623047" xlink:href="#DejaVuSans-2e"/>
       <use x="95.410156" xlink:href="#DejaVuSans-35"/>
       <use x="159.033203" xlink:href="#DejaVuSans-25"/>
      </g>
     </g>
    </g>
    <g id="xtick_2">
     <g id="line2d_2">
      <g>
       <use style="stroke:#000000;stroke-width:0.8;" x="91.674" xlink:href="#m41a5c8cfb1" y="512.64"/>
      </g>
     </g>
     <g id="text_2">
      <!-- 0.8% -->
      <defs>
       <path d="M 31.78125 34.625 
Q 24.75 34.625 20.71875 30.859375 
Q 16.703125 27.09375 16.703125 20.515625 
Q 16.703125 13.921875 20.71875 10.15625 
Q 24.75 6.390625 31.78125 6.390625 
Q 38.8125 6.390625 42.859375 10.171875 
Q 46.921875 13.96875 46.921875 20.515625 
Q 46.921875 27.09375 42.890625 30.859375 
Q 38.875 34.625 31.78125 34.625 
z
M 21.921875 38.8125 
Q 15.578125 40.375 12.03125 44.71875 
Q 8.5 49.078125 8.5 55.328125 
Q 8.5 64.0625 14.71875 69.140625 
Q 20.953125 74.21875 31.78125 74.21875 
Q 42.671875 74.21875 48.875 69.140625 
Q 55.078125 64.0625 55.078125 55.328125 
Q 55.078125 49.078125 51.53125 44.71875 
Q 48 40.375 41.703125 38.8125 
Q 48.828125 37.15625 52.796875 32.3125 
Q 56.78125 27.484375 56.78125 20.515625 
Q 56.78125 9.90625 50.3125 4.234375 
Q 43.84375 -1.421875 31.78125 -1.421875 
Q 19.734375 -1.421875 13.25 4.234375 
Q 6.78125 9.90625 6.78125 20.515625 
Q 6.78125 27.484375 10.78125 32.3125 
Q 14.796875 37.15625 21.921875 38.8125 
z
M 18.3125 54.390625 
Q 18.3125 48.734375 21.84375 45.5625 
Q 25.390625 42.390625 31.78125 42.390625 
Q 38.140625 42.390625 41.71875 45.5625 
Q 45.3125 48.734375 45.3125 54.390625 
Q 45.3125 60.0625 41.71875 63.234375 
Q 38.140625 66.40625 31.78125 66.40625 
Q 25.390625 66.40625 21.84375 63.234375 
Q 18.3125 60.0625 18.3125 54.390625 
z
" id="DejaVuSans-38"/>
      </defs>
      <g transform="translate(72.620484 531.037656)scale(0.15 -0.15)">
       <use xlink:href="#DejaVuSans-30"/>
       <use x="63.623047" xlink:href="#DejaVuSans-2e"/>
       <use x="95.410156" xlink:href="#DejaVuSans-38"/>
       <use x="159.033203" xlink:href="#DejaVuSans-25"/>
      </g>
     </g>
    </g>
    <g id="xtick_3">
     <g id="line2d_3">
      <g>
       <use style="stroke:#000000;stroke-width:0.8;" x="92.79" xlink:href="#m41a5c8cfb1" y="512.64"/>
      </g>
     </g>
     <g id="text_3">
      <!-- 1% -->
      <defs>
       <path d="M 12.40625 8.296875 
L 28.515625 8.296875 
L 28.515625 63.921875 
L 10.984375 60.40625 
L 10.984375 69.390625 
L 28.421875 72.90625 
L 38.28125 72.90625 
L 38.28125 8.296875 
L 54.390625 8.296875 
L 54.390625 0 
L 12.40625 0 
z
" id="DejaVuSans-31"/>
      </defs>
      <g transform="translate(80.891953 531.037656)scale(0.15 -0.15)">
       <use xlink:href="#DejaVuSans-31"/>
       <use x="63.623047" xlink:href="#DejaVuSans-25"/>
      </g>
     </g>
    </g>
    <g id="text_4">
     <!-- Insert error rate -->
     <defs>
      <path d="M 9.8125 72.90625 
L 19.671875 72.90625 
L 19.671875 0 
L 9.8125 0 
z
" id="DejaVuSans-49"/>
      <path d="M 54.890625 33.015625 
L 54.890625 0 
L 45.90625 0 
L 45.90625 32.71875 
Q 45.90625 40.484375 42.875 44.328125 
Q 39.84375 48.1875 33.796875 48.1875 
Q 26.515625 48.1875 22.3125 43.546875 
Q 18.109375 38.921875 18.109375 30.90625 
L 18.109375 0 
L 9.078125 0 
L 9.078125 54.6875 
L 18.109375 54.6875 
L 18.109375 46.1875 
Q 21.34375 51.125 25.703125 53.5625 
Q 30.078125 56 35.796875 56 
Q 45.21875 56 50.046875 50.171875 
Q 54.890625 44.34375 54.890625 33.015625 
z
" id="DejaVuSans-6e"/>
      <path d="M 44.28125 53.078125 
L 44.28125 44.578125 
Q 40.484375 46.53125 36.375 47.5 
Q 32.28125 48.484375 27.875 48.484375 
Q 21.1875 48.484375 17.84375 46.4375 
Q 14.5 44.390625 14.5 40.28125 
Q 14.5 37.15625 16.890625 35.375 
Q 19.28125 33.59375 26.515625 31.984375 
L 29.59375 31.296875 
Q 39.15625 29.25 43.1875 25.515625 
Q 47.21875 21.78125 47.21875 15.09375 
Q 47.21875 7.46875 41.1875 3.015625 
Q 35.15625 -1.421875 24.609375 -1.421875 
Q 20.21875 -1.421875 15.453125 -0.5625 
Q 10.6875 0.296875 5.421875 2 
L 5.421875 11.28125 
Q 10.40625 8.6875 15.234375 7.390625 
Q 20.0625 6.109375 24.8125 6.109375 
Q 31.15625 6.109375 34.5625 8.28125 
Q 37.984375 10.453125 37.984375 14.40625 
Q 37.984375 18.0625 35.515625 20.015625 
Q 33.0625 21.96875 24.703125 23.78125 
L 21.578125 24.515625 
Q 13.234375 26.265625 9.515625 29.90625 
Q 5.8125 33.546875 5.8125 39.890625 
Q 5.8125 47.609375 11.28125 51.796875 
Q 16.75 56 26.8125 56 
Q 31.78125 56 36.171875 55.265625 
Q 40.578125 54.546875 44.28125 53.078125 
z
" id="DejaVuSans-73"/>
      <path d="M 56.203125 29.59375 
L 56.203125 25.203125 
L 14.890625 25.203125 
Q 15.484375 15.921875 20.484375 11.0625 
Q 25.484375 6.203125 34.421875 6.203125 
Q 39.59375 6.203125 44.453125 7.46875 
Q 49.3125 8.734375 54.109375 11.28125 
L 54.109375 2.78125 
Q 49.265625 0.734375 44.1875 -0.34375 
Q 39.109375 -1.421875 33.890625 -1.421875 
Q 20.796875 -1.421875 13.15625 6.1875 
Q 5.515625 13.8125 5.515625 26.8125 
Q 5.515625 40.234375 12.765625 48.109375 
Q 20.015625 56 32.328125 56 
Q 43.359375 56 49.78125 48.890625 
Q 56.203125 41.796875 56.203125 29.59375 
z
M 47.21875 32.234375 
Q 47.125 39.59375 43.09375 43.984375 
Q 39.0625 48.390625 32.421875 48.390625 
Q 24.90625 48.390625 20.390625 44.140625 
Q 15.875 39.890625 15.1875 32.171875 
z
" id="DejaVuSans-65"/>
      <path d="M 41.109375 46.296875 
Q 39.59375 47.171875 37.8125 47.578125 
Q 36.03125 48 33.890625 48 
Q 26.265625 48 22.1875 43.046875 
Q 18.109375 38.09375 18.109375 28.8125 
L 18.109375 0 
L 9.078125 0 
L 9.078125 54.6875 
L 18.109375 54.6875 
L 18.109375 46.1875 
Q 20.953125 51.171875 25.484375 53.578125 
Q 30.03125 56 36.53125 56 
Q 37.453125 56 38.578125 55.875 
Q 39.703125 55.765625 41.0625 55.515625 
z
" id="DejaVuSans-72"/>
      <path d="M 18.3125 70.21875 
L 18.3125 54.6875 
L 36.8125 54.6875 
L 36.8125 47.703125 
L 18.3125 47.703125 
L 18.3125 18.015625 
Q 18.3125 11.328125 20.140625 9.421875 
Q 21.96875 7.515625 27.59375 7.515625 
L 36.8125 7.515625 
L 36.8125 0 
L 27.59375 0 
Q 17.1875 0 13.234375 3.875 
Q 9.28125 7.765625 9.28125 18.015625 
L 9.28125 47.703125 
L 2.6875 47.703125 
L 2.6875 54.6875 
L 9.28125 54.6875 
L 9.28125 70.21875 
z
" id="DejaVuSans-74"/>
      <path id="DejaVuSans-20"/>
      <path d="M 30.609375 48.390625 
Q 23.390625 48.390625 19.1875 42.75 
Q 14.984375 37.109375 14.984375 27.296875 
Q 14.984375 17.484375 19.15625 11.84375 
Q 23.34375 6.203125 30.609375 6.203125 
Q 37.796875 6.203125 41.984375 11.859375 
Q 46.1875 17.53125 46.1875 27.296875 
Q 46.1875 37.015625 41.984375 42.703125 
Q 37.796875 48.390625 30.609375 48.390625 
z
M 30.609375 56 
Q 42.328125 56 49.015625 48.375 
Q 55.71875 40.765625 55.71875 27.296875 
Q 55.71875 13.875 49.015625 6.21875 
Q 42.328125 -1.421875 30.609375 -1.421875 
Q 18.84375 -1.421875 12.171875 6.21875 
Q 5.515625 13.875 5.515625 27.296875 
Q 5.515625 40.765625 12.171875 48.375 
Q 18.84375 56 30.609375 56 
z
" id="DejaVuSans-6f"/>
      <path d="M 34.28125 27.484375 
Q 23.390625 27.484375 19.1875 25 
Q 14.984375 22.515625 14.984375 16.5 
Q 14.984375 11.71875 18.140625 8.90625 
Q 21.296875 6.109375 26.703125 6.109375 
Q 34.1875 6.109375 38.703125 11.40625 
Q 43.21875 16.703125 43.21875 25.484375 
L 43.21875 27.484375 
z
M 52.203125 31.203125 
L 52.203125 0 
L 43.21875 0 
L 43.21875 8.296875 
Q 40.140625 3.328125 35.546875 0.953125 
Q 30.953125 -1.421875 24.3125 -1.421875 
Q 15.921875 -1.421875 10.953125 3.296875 
Q 6 8.015625 6 15.921875 
Q 6 25.140625 12.171875 29.828125 
Q 18.359375 34.515625 30.609375 34.515625 
L 43.21875 34.515625 
L 43.21875 35.40625 
Q 43.21875 41.609375 39.140625 45 
Q 35.0625 48.390625 27.6875 48.390625 
Q 23 48.390625 18.546875 47.265625 
Q 14.109375 46.140625 10.015625 43.890625 
L 10.015625 52.203125 
Q 14.9375 54.109375 19.578125 55.046875 
Q 24.21875 56 28.609375 56 
Q 40.484375 56 46.34375 49.84375 
Q 52.203125 43.703125 52.203125 31.203125 
z
" id="DejaVuSans-61"/>
     </defs>
     <g transform="translate(309.0375 549.554844)scale(0.15 -0.15)">
      <use xlink:href="#DejaVuSans-49"/>
      <use x="29.492188" xlink:href="#DejaVuSans-6e"/>
      <use x="92.871094" xlink:href="#DejaVuSans-73"/>
      <use x="144.970703" xlink:href="#DejaVuSans-65"/>
      <use x="206.494141" xlink:href="#DejaVuSans-72"/>
      <use x="247.607422" xlink:href="#DejaVuSans-74"/>
      <use x="286.816406" xlink:href="#DejaVuSans-20"/>
      <use x="318.603516" xlink:href="#DejaVuSans-65"/>
      <use x="380.126953" xlink:href="#DejaVuSans-72"/>
      <use x="421.224609" xlink:href="#DejaVuSans-72"/>
      <use x="462.306641" xlink:href="#DejaVuSans-6f"/>
      <use x="523.488281" xlink:href="#DejaVuSans-72"/>
      <use x="564.601562" xlink:href="#DejaVuSans-20"/>
      <use x="596.388672" xlink:href="#DejaVuSans-72"/>
      <use x="637.501953" xlink:href="#DejaVuSans-61"/>
      <use x="698.78125" xlink:href="#DejaVuSans-74"/>
      <use x="737.990234" xlink:href="#DejaVuSans-65"/>
     </g>
    </g>
   </g>
   <g id="matplotlib.axis_2">
    <g id="ytick_1">
     <g id="line2d_4">
      <defs>
       <path d="M 0 0 
L -3.5 0 
" id="m2529bae63a" style="stroke:#000000;stroke-width:0.8;"/>
      </defs>
      <g>
       <use style="stroke:#000000;stroke-width:0.8;" x="90" xlink:href="#m2529bae63a" y="438.72"/>
      </g>
     </g>
     <g id="text_5">
      <!-- 99.5% -->
      <defs>
       <path d="M 10.984375 1.515625 
L 10.984375 10.5 
Q 14.703125 8.734375 18.5 7.8125 
Q 22.3125 6.890625 25.984375 6.890625 
Q 35.75 6.890625 40.890625 13.453125 
Q 46.046875 20.015625 46.78125 33.40625 
Q 43.953125 29.203125 39.59375 26.953125 
Q 35.25 24.703125 29.984375 24.703125 
Q 19.046875 24.703125 12.671875 31.3125 
Q 6.296875 37.9375 6.296875 49.421875 
Q 6.296875 60.640625 12.9375 67.421875 
Q 19.578125 74.21875 30.609375 74.21875 
Q 43.265625 74.21875 49.921875 64.515625 
Q 56.59375 54.828125 56.59375 36.375 
Q 56.59375 19.140625 48.40625 8.859375 
Q 40.234375 -1.421875 26.421875 -1.421875 
Q 22.703125 -1.421875 18.890625 -0.6875 
Q 15.09375 0.046875 10.984375 1.515625 
z
M 30.609375 32.421875 
Q 37.25 32.421875 41.125 36.953125 
Q 45.015625 41.5 45.015625 49.421875 
Q 45.015625 57.28125 41.125 61.84375 
Q 37.25 66.40625 30.609375 66.40625 
Q 23.96875 66.40625 20.09375 61.84375 
Q 16.21875 57.28125 16.21875 49.421875 
Q 16.21875 41.5 20.09375 36.953125 
Q 23.96875 32.421875 30.609375 32.421875 
z
" id="DejaVuSans-39"/>
      </defs>
      <g transform="translate(19.465625 446.318438)scale(0.2 -0.2)">
       <use xlink:href="#DejaVuSans-39"/>
       <use x="63.623047" xlink:href="#DejaVuSans-39"/>
       <use x="127.246094" xlink:href="#DejaVuSans-2e"/>
       <use x="159.033203" xlink:href="#DejaVuSans-35"/>
       <use x="222.65625" xlink:href="#DejaVuSans-25"/>
      </g>
     </g>
    </g>
    <g id="ytick_2">
     <g id="line2d_5">
      <g>
       <use style="stroke:#000000;stroke-width:0.8;" x="90" xlink:href="#m2529bae63a" y="253.92"/>
      </g>
     </g>
     <g id="text_6">
      <!-- 100% -->
      <g transform="translate(25.821875 261.518437)scale(0.2 -0.2)">
       <use xlink:href="#DejaVuSans-31"/>
       <use x="63.623047" xlink:href="#DejaVuSans-30"/>
       <use x="127.246094" xlink:href="#DejaVuSans-30"/>
       <use x="190.869141" xlink:href="#DejaVuSans-25"/>
      </g>
     </g>
    </g>
    <g id="text_7">
     <!-- Data recovery rate -->
     <defs>
      <path d="M 19.671875 64.796875 
L 19.671875 8.109375 
L 31.59375 8.109375 
Q 46.6875 8.109375 53.6875 14.9375 
Q 60.6875 21.78125 60.6875 36.53125 
Q 60.6875 51.171875 53.6875 57.984375 
Q 46.6875 64.796875 31.59375 64.796875 
z
M 9.8125 72.90625 
L 30.078125 72.90625 
Q 51.265625 72.90625 61.171875 64.09375 
Q 71.09375 55.28125 71.09375 36.53125 
Q 71.09375 17.671875 61.125 8.828125 
Q 51.171875 0 30.078125 0 
L 9.8125 0 
z
" id="DejaVuSans-44"/>
      <path d="M 48.78125 52.59375 
L 48.78125 44.1875 
Q 44.96875 46.296875 41.140625 47.34375 
Q 37.3125 48.390625 33.40625 48.390625 
Q 24.65625 48.390625 19.8125 42.84375 
Q 14.984375 37.3125 14.984375 27.296875 
Q 14.984375 17.28125 19.8125 11.734375 
Q 24.65625 6.203125 33.40625 6.203125 
Q 37.3125 6.203125 41.140625 7.25 
Q 44.96875 8.296875 48.78125 10.40625 
L 48.78125 2.09375 
Q 45.015625 0.34375 40.984375 -0.53125 
Q 36.96875 -1.421875 32.421875 -1.421875 
Q 20.0625 -1.421875 12.78125 6.34375 
Q 5.515625 14.109375 5.515625 27.296875 
Q 5.515625 40.671875 12.859375 48.328125 
Q 20.21875 56 33.015625 56 
Q 37.15625 56 41.109375 55.140625 
Q 45.0625 54.296875 48.78125 52.59375 
z
" id="DejaVuSans-63"/>
      <path d="M 2.984375 54.6875 
L 12.5 54.6875 
L 29.59375 8.796875 
L 46.6875 54.6875 
L 56.203125 54.6875 
L 35.6875 0 
L 23.484375 0 
z
" id="DejaVuSans-76"/>
      <path d="M 32.171875 -5.078125 
Q 28.375 -14.84375 24.75 -17.8125 
Q 21.140625 -20.796875 15.09375 -20.796875 
L 7.90625 -20.796875 
L 7.90625 -13.28125 
L 13.1875 -13.28125 
Q 16.890625 -13.28125 18.9375 -11.515625 
Q 21 -9.765625 23.484375 -3.21875 
L 25.09375 0.875 
L 2.984375 54.6875 
L 12.5 54.6875 
L 29.59375 11.921875 
L 46.6875 54.6875 
L 56.203125 54.6875 
z
" id="DejaVuSans-79"/>
     </defs>
     <g transform="translate(12.346094 361.77375)rotate(-90)scale(0.15 -0.15)">
      <use xlink:href="#DejaVuSans-44"/>
      <use x="77.001953" xlink:href="#DejaVuSans-61"/>
      <use x="138.28125" xlink:href="#DejaVuSans-74"/>
      <use x="177.490234" xlink:href="#DejaVuSans-61"/>
      <use x="238.769531" xlink:href="#DejaVuSans-20"/>
      <use x="270.556641" xlink:href="#DejaVuSans-72"/>
      <use x="311.638672" xlink:href="#DejaVuSans-65"/>
      <use x="373.162109" xlink:href="#DejaVuSans-63"/>
      <use x="428.142578" xlink:href="#DejaVuSans-6f"/>
      <use x="489.324219" xlink:href="#DejaVuSans-76"/>
      <use x="548.503906" xlink:href="#DejaVuSans-65"/>
      <use x="610.027344" xlink:href="#DejaVuSans-72"/>
      <use x="651.140625" xlink:href="#DejaVuSans-79"/>
      <use x="710.320312" xlink:href="#DejaVuSans-20"/>
      <use x="742.107422" xlink:href="#DejaVuSans-72"/>
      <use x="783.220703" xlink:href="#DejaVuSans-61"/>
      <use x="844.5" xlink:href="#DejaVuSans-74"/>
      <use x="883.708984" xlink:href="#DejaVuSans-65"/>
     </g>
    </g>
   </g>
   <g id="line2d_6">
    <path clip-path="url(#pe32909ea3b)" d="M 87.2658 253.92 
L 87.768 274.028532 
L 88.884 318.258748 
L 90 355.105872 
L 91.674 419.680647 
L 92.79 470.290049 
" style="fill:none;opacity:0.9;stroke:#88c999;stroke-linecap:square;stroke-width:1.5;"/>
    <defs>
     <path d="M 0 -3 
L -3 3 
L 3 3 
z
" id="ma2d2a9ceac" style="stroke:#88c999;stroke-linejoin:miter;"/>
    </defs>
    <g clip-path="url(#pe32909ea3b)">
     <use style="fill:#88c999;opacity:0.9;stroke:#88c999;stroke-linejoin:miter;" x="87.2658" xlink:href="#ma2d2a9ceac" y="253.92"/>
     <use style="fill:#88c999;opacity:0.9;stroke:#88c999;stroke-linejoin:miter;" x="87.768" xlink:href="#ma2d2a9ceac" y="274.028532"/>
     <use style="fill:#88c999;opacity:0.9;stroke:#88c999;stroke-linejoin:miter;" x="88.884" xlink:href="#ma2d2a9ceac" y="318.258748"/>
     <use style="fill:#88c999;opacity:0.9;stroke:#88c999;stroke-linejoin:miter;" x="90" xlink:href="#ma2d2a9ceac" y="355.105872"/>
     <use style="fill:#88c999;opacity:0.9;stroke:#88c999;stroke-linejoin:miter;" x="91.674" xlink:href="#ma2d2a9ceac" y="419.680647"/>
     <use style="fill:#88c999;opacity:0.9;stroke:#88c999;stroke-linejoin:miter;" x="92.79" xlink:href="#ma2d2a9ceac" y="470.290049"/>
    </g>
   </g>
   <g id="line2d_7">
    <path clip-path="url(#pe32909ea3b)" d="M 87.2658 257.728506 
L 87.768 277.203765 
L 88.884 317.106446 
L 90 358.437336 
L 91.674 419.503165 
L 92.79 458.973045 
" style="fill:none;opacity:0.9;stroke:#fc011a;stroke-linecap:square;stroke-width:1.5;"/>
    <defs>
     <path d="M 0 -3 
L -0.673542 -0.927051 
L -2.85317 -0.927051 
L -1.089814 0.354102 
L -1.763356 2.427051 
L -0 1.145898 
L 1.763356 2.427051 
L 1.089814 0.354102 
L 2.85317 -0.927051 
L 0.673542 -0.927051 
z
" id="m0cabff36e6" style="stroke:#fc011a;stroke-linejoin:bevel;"/>
    </defs>
    <g clip-path="url(#pe32909ea3b)">
     <use style="fill:#fc011a;opacity:0.9;stroke:#fc011a;stroke-linejoin:bevel;" x="87.2658" xlink:href="#m0cabff36e6" y="257.728506"/>
     <use style="fill:#fc011a;opacity:0.9;stroke:#fc011a;stroke-linejoin:bevel;" x="87.768" xlink:href="#m0cabff36e6" y="277.203765"/>
     <use style="fill:#fc011a;opacity:0.9;stroke:#fc011a;stroke-linejoin:bevel;" x="88.884" xlink:href="#m0cabff36e6" y="317.106446"/>
     <use style="fill:#fc011a;opacity:0.9;stroke:#fc011a;stroke-linejoin:bevel;" x="90" xlink:href="#m0cabff36e6" y="358.437336"/>
     <use style="fill:#fc011a;opacity:0.9;stroke:#fc011a;stroke-linejoin:bevel;" x="91.674" xlink:href="#m0cabff36e6" y="419.503165"/>
     <use style="fill:#fc011a;opacity:0.9;stroke:#fc011a;stroke-linejoin:bevel;" x="92.79" xlink:href="#m0cabff36e6" y="458.973045"/>
    </g>
   </g>
   <g id="patch_3">
    <path d="M 90 512.64 
L 90 69.12 
" style="fill:none;stroke:#000000;stroke-linecap:square;stroke-linejoin:miter;stroke-width:0.8;"/>
   </g>
   <g id="patch_4">
    <path d="M 648 512.64 
L 648 69.12 
" style="fill:none;stroke:#000000;stroke-linecap:square;stroke-linejoin:miter;stroke-width:0.8;"/>
   </g>
   <g id="patch_5">
    <path d="M 90 512.64 
L 648 512.64 
" style="fill:none;stroke:#000000;stroke-linecap:square;stroke-linejoin:miter;stroke-width:0.8;"/>
   </g>
   <g id="patch_6">
    <path d="M 90 69.12 
L 648 69.12 
" style="fill:none;stroke:#000000;stroke-linecap:square;stroke-linejoin:miter;stroke-width:0.8;"/>
   </g>
   <g id="legend_1">
    <g id="patch_7">
     <path d="M 537.793594 182.091187 
L 620.76 182.091187 
Q 623.76 182.091187 623.76 179.091187 
L 623.76 136.556812 
Q 623.76 133.556812 620.76 133.556812 
L 537.793594 133.556812 
Q 534.793594 133.556812 534.793594 136.556812 
L 534.793594 179.091187 
Q 534.793594 182.091187 537.793594 182.091187 
z
" style="fill:#ffffff;opacity:0.8;stroke:#cccccc;stroke-linejoin:miter;"/>
    </g>
    <g id="PathCollection_3">
     <g>
      <use style="fill:#88c999;fill-opacity:0.9;stroke:#000000;stroke-opacity:0.9;" x="555.793594" xlink:href="#mdc541e3f50" y="147.016969"/>
     </g>
    </g>
    <g id="text_8">
     <!-- YYC -->
     <defs>
      <path d="M -0.203125 72.90625 
L 10.40625 72.90625 
L 30.609375 42.921875 
L 50.6875 72.90625 
L 61.28125 72.90625 
L 35.5 34.71875 
L 35.5 0 
L 25.59375 0 
L 25.59375 34.71875 
z
" id="DejaVuSans-59"/>
      <path d="M 64.40625 67.28125 
L 64.40625 56.890625 
Q 59.421875 61.53125 53.78125 63.8125 
Q 48.140625 66.109375 41.796875 66.109375 
Q 29.296875 66.109375 22.65625 58.46875 
Q 16.015625 50.828125 16.015625 36.375 
Q 16.015625 21.96875 22.65625 14.328125 
Q 29.296875 6.6875 41.796875 6.6875 
Q 48.140625 6.6875 53.78125 8.984375 
Q 59.421875 11.28125 64.40625 15.921875 
L 64.40625 5.609375 
Q 59.234375 2.09375 53.4375 0.328125 
Q 47.65625 -1.421875 41.21875 -1.421875 
Q 24.65625 -1.421875 15.125 8.703125 
Q 5.609375 18.84375 5.609375 36.375 
Q 5.609375 53.953125 15.125 64.078125 
Q 24.65625 74.21875 41.21875 74.21875 
Q 47.75 74.21875 53.53125 72.484375 
Q 59.328125 70.75 64.40625 67.28125 
z
" id="DejaVuSans-43"/>
     </defs>
     <g transform="translate(582.793594 150.954469)scale(0.15 -0.15)">
      <use xlink:href="#DejaVuSans-59"/>
      <use x="61.083984" xlink:href="#DejaVuSans-59"/>
      <use x="122.089844" xlink:href="#DejaVuSans-43"/>
     </g>
    </g>
    <g id="PathCollection_4">
     <g>
      <use style="fill:#fc011a;fill-opacity:0.5;stroke:#000000;stroke-opacity:0.5;" x="555.793594" xlink:href="#mff928c9f6f" y="169.034156"/>
     </g>
    </g>
    <g id="text_9">
     <!-- DMC -->
     <defs>
      <path d="M 9.8125 72.90625 
L 24.515625 72.90625 
L 43.109375 23.296875 
L 61.8125 72.90625 
L 76.515625 72.90625 
L 76.515625 0 
L 66.890625 0 
L 66.890625 64.015625 
L 48.09375 14.015625 
L 38.1875 14.015625 
L 19.390625 64.015625 
L 19.390625 0 
L 9.8125 0 
z
" id="DejaVuSans-4d"/>
     </defs>
     <g transform="translate(582.793594 172.971656)scale(0.15 -0.15)">
      <use xlink:href="#DejaVuSans-44"/>
      <use x="77.001953" xlink:href="#DejaVuSans-4d"/>
      <use x="163.28125" xlink:href="#DejaVuSans-43"/>
     </g>
    </g>
   </g>
  </g>
 </g>
 <defs>
  <clipPath id="pe32909ea3b">
   <rect height="443.52" width="558" x="90" y="69.12"/>
  </clipPath>
 </defs>
</svg>
